<svg width="1902" height="118" viewBox="0 0 1902 118" fill="none" xmlns="http://www.w3.org/2000/svg">
<path d="M979.371 0.388672C980.82 0.408599 982.128 1.27604 982.641 2.5957C983.089 3.74999 983.887 5.1432 985.312 6.32031C987.346 7.99967 989.654 8.4103 991.332 8.43652C992.805 8.45954 994.108 9.35376 994.605 10.7031C996.074 14.6846 997.504 19.4499 998.523 24.9062C999.234 28.712 1000.07 34.6566 999.995 41.9756C999.811 59.7889 994.173 72.8757 992.157 77.2061C992.012 77.5177 990.541 80.6626 988.72 83.7979C979.46 99.7421 963.735 110.999 952.854 117.491C951.716 118.17 950.284 118.17 949.146 117.491C938.265 110.999 922.54 99.7421 913.28 83.7979C911.459 80.6626 909.988 77.5178 909.843 77.2061C907.827 72.8757 902.189 59.7889 902.005 41.9756C901.929 34.6566 902.766 28.712 903.477 24.9062C904.496 19.4499 905.926 14.6846 907.395 10.7031C907.892 9.35376 909.195 8.45954 910.668 8.43652C912.346 8.4103 914.654 7.99967 916.688 6.32031C918.113 5.14319 918.911 3.75003 919.359 2.5957C919.872 1.27604 921.18 0.408594 922.629 0.388672C932.29 0.256301 941.182 0.134529 951 0C960.818 0.134529 969.71 0.256301 979.371 0.388672ZM930 30.0078C928.448 30.0079 927.191 31.2324 927.19 32.7432V36.501C927.19 43.2897 929.621 49.6892 934.034 54.5205C934.81 55.3694 935.632 56.1535 936.498 56.8711C936.79 57.1126 937.21 57.1352 937.532 56.9346C938.44 56.37 939.382 55.8617 940.354 55.4111C940.91 55.1541 941.471 54.9181 942.037 54.7031C942.689 54.4555 942.786 53.5924 942.206 53.21C941.002 52.4157 939.889 51.4641 938.894 50.3799C938.39 49.8313 938.788 48.9602 939.544 48.96H962.455C963.211 48.96 963.609 49.8302 963.105 50.3789C961.695 51.9151 960.052 53.1866 958.241 54.1191C957.556 54.4722 956.847 54.7773 956.117 55.0293C954.499 55.5882 952.78 55.8896 951 55.8896C947.738 55.8897 944.577 56.5879 941.603 57.9648C940.907 58.287 940.229 58.6428 939.569 59.0312C939.114 59.2997 938.668 59.5853 938.23 59.8848C937.811 60.1717 937.4 60.4721 936.999 60.7871C935.949 61.6117 934.958 62.5307 934.034 63.542C929.621 68.3733 927.19 74.7729 927.19 81.5615V85.2568C927.191 86.7676 928.448 87.9921 930 87.9922H930.835C932.387 87.9921 933.644 86.7676 933.645 85.2568V84.0078C933.645 83.5676 933.988 83.2049 934.429 83.1611L934.519 83.1572H967.481C967.964 83.1572 968.355 83.5381 968.355 84.0078V85.2568C968.356 86.7676 969.613 87.992 971.165 87.9922H972C973.552 87.9922 974.809 86.7676 974.81 85.2568V81.5615C974.81 74.7728 972.379 68.3732 967.966 63.542C967.19 62.6932 966.367 61.9099 965.502 61.1924C965.21 60.9508 964.79 60.9273 964.468 61.1279C963.56 61.6925 962.618 62.2009 961.646 62.6514C961.09 62.9085 960.529 63.1453 959.963 63.3604C959.31 63.6081 959.215 64.4709 959.795 64.8535C960.973 65.6302 962.062 66.5578 963.04 67.6123C963.548 68.1595 963.149 69.0332 962.392 69.0332H939.608L939.471 69.0234C938.805 68.9254 938.484 68.1253 938.96 67.6123C940.356 66.1081 941.976 64.8624 943.759 63.9443C944.444 63.5913 945.153 63.2852 945.883 63.0332C947.501 62.4743 949.22 62.1729 951 62.1729C954.262 62.1728 957.424 61.4755 960.397 60.0986C961.093 59.7765 961.771 59.4197 962.431 59.0312C962.886 58.7628 963.332 58.4781 963.77 58.1787C964.189 57.8917 964.599 57.5906 965.001 57.2754C966.051 56.4509 967.042 55.5317 967.966 54.5205C972.379 49.6892 974.81 43.2896 974.81 36.501V32.7432C974.809 31.2325 973.552 30.008 972 30.0078H971.165L970.878 30.0215C969.461 30.1615 968.356 31.3268 968.355 32.7432V33.9863C968.355 34.456 967.964 34.8369 967.481 34.8369H934.519L934.429 34.832C933.988 34.7883 933.645 34.4265 933.645 33.9863V31.8926C933.644 30.8515 932.777 30.0078 931.708 30.0078H930ZM966.587 74.6895C966.971 74.6895 967.312 74.9321 967.422 75.29C967.539 75.6718 967.646 76.0591 967.742 76.4512C967.873 76.9867 967.458 77.5019 966.893 77.502H935.107L935.003 77.4961C934.492 77.4374 934.135 76.9531 934.258 76.4512C934.354 76.0592 934.461 75.6718 934.578 75.29C934.688 74.9322 935.029 74.6895 935.413 74.6895H966.587ZM867 50C869.652 49.969 872.196 50.9952 874.071 52.8711C875.947 54.7459 877 57.3168 877 60C877 62.6832 875.947 65.2541 874.071 67.1289C872.196 69.0048 869.652 70.031 867 70L823.699 69.5L44.2891 60.4961L0.988281 59.9961L44.2891 59.4961L823.699 50.5L867 50ZM1078.3 50.5L1857.71 59.4961L1901.01 59.9961L1857.71 60.4961L1078.3 69.5L1035 70C1032.35 70.031 1029.8 69.0048 1027.93 67.1289C1026.05 65.2541 1025 62.6832 1025 60C1025 57.3168 1026.05 54.7459 1027.93 52.8711C1029.8 50.9952 1032.35 49.969 1035 50L1078.3 50.5ZM966.909 40.4922C967.474 40.4922 967.889 41.0052 967.76 41.54C967.665 41.9319 967.56 42.3194 967.444 42.7012C967.335 43.0603 966.993 43.3046 966.608 43.3047H935.392C935.007 43.3046 934.665 43.0603 934.556 42.7012C934.44 42.3194 934.335 41.9319 934.24 41.54C934.111 41.0052 934.526 40.4922 935.091 40.4922H966.909ZM980.752 11.8447C980.558 10.8891 979.15 10.8892 978.956 11.8447C978.051 16.3207 976.281 19.0843 971.668 19.9629C970.682 20.1505 970.682 21.5184 971.668 21.7061C976.281 22.5847 978.051 25.3474 978.956 29.8232C979.149 30.7795 980.559 30.7795 980.752 29.8232C981.657 25.3474 983.427 22.5845 988.04 21.7061C989.025 21.5183 989.025 20.1507 988.04 19.9629C983.427 19.0844 981.657 16.3209 980.752 11.8447Z" fill="#7EDF5E"/>
</svg>
